PathFileType	4	(X/Y/Z)	C:/Users/opensim2020/Desktop/walking_exp_matlab/subject03_walking15_straight_03.trc	
DataRate	CameraRate	NumFrames	NumMarkers	Units	OrigDataRate	OrigDataStartFrame	OrigNumFrames	
100.00	100.00	8	47	mm	100.00	1714	220	
Frame#	Time	LFHD			RFHD			LBHD			RBHD			C7			T10			CLAV			STRN			RBAK			LSHO			LUPA			LELB			LFRM			LWRA			LWRB			LFIN			RSHO			RUPA			RELB			RFRM			RWRA			RWRB			RFIN			LASI			RASI			LPSI			RPSI			LTHI			LKNE			LTIB			LANK			LHEE			LTOE			RTHI			RKNE			RTIB			RANK			RHEE			RTOE			*39			*40			*41			*42			*43			*44			*45			*46			
		X1	Y1	Z1	X2	Y2	Z2	X3	Y3	Z3	X4	Y4	Z4	X5	Y5	Z5	X6	Y6	Z6	X7	Y7	Z7	X8	Y8	Z8	X9	Y9	Z9	X10	Y10	Z10	X11	Y11	Z11	X12	Y12	Z12	X13	Y13	Z13	X14	Y14	Z14	X15	Y15	Z15	X16	Y16	Z16	X17	Y17	Z17	X18	Y18	Z18	X19	Y19	Z19	X20	Y20	Z20	X21	Y21	Z21	X22	Y22	Z22	X23	Y23	Z23	X24	Y24	Z24	X25	Y25	Z25	X26	Y26	Z26	X27	Y27	Z27	X28	Y28	Z28	X29	Y29	Z29	X30	Y30	Z30	X31	Y31	Z31	X32	Y32	Z32	X33	Y33	Z33	X34	Y34	Z34	X35	Y35	Z35	X36	Y36	Z36	X37	Y37	Z37	X38	Y38	Z38	X39	Y39	Z39	X40	Y40	Z40	X41	Y41	Z41	X42	Y42	Z42	X43	Y43	Z43	X44	Y44	Z44	X45	Y45	Z45	X46	Y46	Z46	X47	Y47	Z47	

138	1.370	1338.76758	298.60614	1625.76611	1471.28125	300.40533	1636.35400	1349.24402	185.00357	1554.44409	1479.47302	191.10818	1565.15259	1398.32019	186.83347	1402.70325	1394.70630	179.75043	1092.89844	1411.55408	315.12177	1340.83472	1408.09546	376.55264	1180.17371	1481.34290	144.56604	1222.34717	1252.64514	284.25275	1376.38928	1174.93652	326.29984	1189.17615	1160.50964	368.64218	1073.78333	1167.86401	436.92883	963.13300	1204.09851	490.42105	858.72894	1150.06299	477.54385	857.95697	1161.73132	524.36902	790.93304	1565.39014	246.55093	1356.13281	1636.78882	231.41124	1134.59912	1655.68115	236.94545	1022.94415	1665.26575	240.21962	885.92389	1640.85486	269.06073	786.15961	1676.57507	227.99117	786.41931	1672.38452	244.77559	712.01141	1286.50720	349.57373	938.56055	1521.98767	337.97836	936.20239	1330.07776	185.52957	958.66577	1477.94348	178.52478	956.60699	1250.94226	269.32068	637.66663	1293.86279	241.78499	463.24771	1288.98279	157.18643	281.96112	1332.24597	97.12397	79.55604	1364.95374	48.20926	51.09077	1368.57178	241.93539	33.83138	1571.52893	368.54056	649.48328	1547.37598	452.09186	490.70734	1550.74146	417.81482	300.05090	1506.95911	402.34381	83.64874	1449.96387	363.55923	50.68808	1504.43005	538.66559	46.72695	1391.47095	205.38614	1668.44299																					 
139	1.380	1338.91382	312.06863	1624.69800	1471.70081	314.02176	1635.00818	1349.87268	198.39049	1553.32532	1480.08606	204.69655	1563.89539	1398.86560	200.21478	1401.42249	1395.55408	193.07596	1091.53955	1411.47095	328.49744	1339.57996	1407.77454	389.94244	1178.88916	1481.58972	158.38931	1220.56348	1252.96545	296.96762	1375.24329	1175.09998	341.21109	1189.17065	1160.52588	385.92667	1074.67456	1168.94348	458.45309	966.92810	1206.74817	516.53058	865.66675	1152.88306	503.25467	863.12640	1165.85474	552.41193	797.84009	1565.76453	260.23245	1354.58289	1636.75330	244.14297	1133.00354	1655.66211	248.72713	1021.26093	1665.52014	249.61702	884.32385	1641.54260	276.85925	783.84045	1676.99719	235.30585	785.11237	1673.06348	250.63048	710.42456	1285.97156	361.27213	936.82404	1521.73389	352.47601	934.80884	1331.75476	197.88673	957.34180	1479.59448	192.55107	955.22253	1250.93298	277.34662	636.96973	1294.10693	247.37488	462.88193	1289.57532	160.31883	282.83789	1332.92249	97.57970	81.14707	1365.51245	48.68048	52.87832	1368.99011	241.92131	33.62413	1572.04883	381.53036	647.94293	1547.28406	464.77911	489.07828	1552.76538	441.28171	297.72849	1511.14832	441.35870	80.28190	1454.30469	403.83972	45.47435	1507.35901	579.38678	48.89206	1392.13696	218.68210	1666.54150																					 
140	1.390	1339.37122	325.44186	1623.37219	1472.16138	327.70706	1633.62256	1350.44531	211.81691	1552.10535	1480.66565	218.30576	1562.58459	1399.49976	213.63365	1400.13977	1396.55542	206.53673	1090.25745	1411.65845	341.92764	1338.22412	1407.39404	403.37570	1177.56372	1482.01807	172.27026	1218.85364	1253.33105	309.65549	1374.03870	1175.31995	355.90533	1189.05115	1160.60278	402.68411	1075.44470	1170.03784	479.28769	970.77618	1209.46509	541.90100	873.01843	1155.95923	528.35492	868.62451	1170.07556	579.74036	805.27130	1566.21509	274.06146	1353.13940	1636.82458	257.16843	1131.56104	1655.98804	260.77167	1019.90796	1665.79553	259.59695	882.79962	1642.07825	285.18857	781.73981	1677.38440	243.51605	783.88684	1673.50671	257.02307	708.78589	1285.76123	373.52246	935.23071	1521.59241	367.41083	933.54700	1333.47559	210.42691	955.72650	1481.36755	206.78185	953.91205	1251.80481	286.28189	636.22528	1294.32483	253.63211	462.18085	1290.21277	163.92294	283.61948	1333.55017	98.20699	82.83114	1366.46863	48.91191	55.48277	1369.11670	241.96587	33.48247	1573.24548	393.77396	645.90021	1546.83582	477.15048	487.25696	1554.91614	464.23367	296.00568	1515.08081	477.89249	78.36860	1458.71863	441.86829	42.38077	1509.87573	617.88586	51.91287	1392.70300	232.58734	1666.19360																					 
141	1.400	1339.80457	338.91559	1622.01221	1472.51123	341.34177	1632.20483	1351.05640	225.22853	1550.89087	1481.27869	232.02325	1561.29199	1400.24841	227.02596	1398.76697	1397.55359	220.17320	1088.85010	1411.77087	355.39111	1336.83643	1407.15479	416.86612	1176.25159	1482.64148	186.27322	1217.24536	1253.79761	322.13184	1372.86267	1175.62708	370.31494	1188.92688	1160.76001	419.01166	1076.19312	1171.13843	499.39789	974.71240	1212.12183	566.26581	880.60675	1158.86035	552.44385	874.39227	1174.32336	606.31378	813.16016	1566.65601	288.04187	1351.70251	1637.04883	270.38083	1130.19128	1656.25977	273.15930	1018.60162	1666.08142	270.11530	881.43073	1642.54785	294.21417	779.90741	1677.81360	252.54616	782.84473	1674.03503	264.61035	707.49829	1285.69043	385.74631	933.74554	1521.26428	382.52322	932.29413	1335.23560	223.07167	954.06622	1483.06665	221.24969	952.65411	1251.80322	295.71671	635.29010	1294.74158	261.01285	461.62640	1290.86658	168.14410	284.47311	1334.29614	98.80595	84.64555	1367.24805	49.37141	58.00263	1369.24219	241.95612	33.37265	1574.56445	404.30365	643.49579	1546.41187	489.19943	485.35983	1556.53760	486.03720	294.99969	1518.78357	511.85016	77.91650	1463.10901	476.79562	40.73457	1511.86853	653.19104	55.87100	1393.27185	246.23059	1664.98206																					 
142	1.410	1340.15613	352.37897	1620.68079	1473.01550	355.11560	1630.90430	1351.70789	238.64694	1549.54858	1481.89148	245.74785	1559.93225	1401.06042	240.40784	1397.22449	1398.61072	233.97646	1087.46533	1412.04651	368.99673	1335.51135	1406.79980	430.49762	1174.94263	1483.40991	200.47675	1215.65576	1254.32471	334.72916	1371.69666	1175.97815	384.51981	1188.74622	1161.05396	434.91928	1077.06042	1172.40173	518.78802	978.72919	1215.04053	589.67883	888.48236	1162.04712	575.67255	880.37573	1178.57849	631.97742	821.50415	1567.18982	302.22034	1350.37769	1637.34399	283.80603	1128.92871	1656.61780	285.92120	1017.34698	1666.48450	281.20316	880.25232	1642.89795	303.88260	778.20892	1678.39746	262.46027	781.97052	1674.27148	272.63605	706.08948	1285.10400	397.95483	931.92206	1520.94287	397.70322	931.11682	1337.00940	235.93192	952.22015	1484.87927	235.84061	951.44373	1252.37146	305.62817	634.39337	1295.29077	269.08594	460.84161	1291.63135	172.93536	285.35071	1334.96594	99.88874	86.98480	1368.05554	49.96791	61.08686	1369.25537	242.04759	33.29849	1576.36597	414.42288	641.26215	1546.08374	501.33289	483.59042	1558.14331	506.73172	294.50150	1522.33032	542.62006	78.39964	1467.08411	508.27396	39.50873	1513.53235	684.75189	60.73228	1394.08740	259.59875	1663.04968																					 
143	1.420	1340.57312	365.92551	1619.39404	1473.32275	368.84720	1629.68103	1352.39795	252.10764	1548.29407	1482.51428	259.51187	1558.75330	1401.93140	253.82224	1395.93201	1399.80066	247.97797	1086.21399	1412.20349	382.61472	1334.26172	1406.51257	444.24164	1173.77393	1484.37122	214.74921	1214.20923	1254.91492	347.25372	1370.60010	1176.22388	398.26666	1188.48792	1161.25220	450.22659	1077.63464	1173.80164	537.49219	982.88580	1217.78479	611.97583	896.41827	1165.49255	598.07843	886.52942	1182.84192	656.71881	830.34863	1567.76196	316.69794	1349.10339	1637.85388	297.51840	1127.80383	1657.12463	298.97760	1016.20770	1666.90564	292.99527	879.09424	1643.09363	314.28952	776.71436	1678.92383	273.35388	781.03217	1674.34424	281.85693	704.85938	1285.03809	410.65411	930.45062	1520.68835	412.87320	929.88403	1338.76318	249.37100	950.56146	1486.66504	250.66708	950.42175	1252.61987	316.26117	633.42859	1295.67053	277.98932	459.99954	1292.21729	178.33885	286.44046	1335.69836	100.81911	89.87383	1368.85315	50.89593	64.80518	1369.41968	242.27354	33.26148	1578.43298	424.86618	639.77338	1546.35046	513.60901	482.30133	1559.64197	525.88605	294.26208	1525.09631	569.50446	79.30964	1470.34058	536.08020	38.43272	1514.90784	712.40125	65.97468	1394.35571	273.63757	1662.28625																					 
144	1.430	1340.90503	379.36603	1618.22839	1473.58899	382.61795	1628.57593	1353.06335	265.70340	1547.09619	1483.19385	273.34363	1557.70276	1402.75671	267.34009	1394.67786	1400.96741	262.02060	1085.05493	1412.40515	396.28976	1333.16479	1406.22937	458.12140	1172.81921	1485.50549	229.16972	1212.87463	1255.56189	359.74243	1369.63794	1176.54004	411.44040	1188.22559	1161.62610	465.02325	1078.33728	1175.31860	555.30566	986.93927	1220.51257	633.12445	904.46600	1168.75867	619.19653	892.70825	1186.91479	680.31732	839.52155	1568.32800	331.18173	1347.91797	1638.45374	311.39096	1126.79211	1657.78040	312.29333	1015.20099	1667.49902	305.40652	878.03009	1643.08582	325.40005	775.32587	1679.70325	285.09518	780.21521	1674.57813	292.32025	703.87665	1284.88440	423.51840	929.00745	1520.53088	428.29019	928.96704	1340.70129	262.77689	949.12482	1488.45691	265.66165	949.60278	1253.17603	327.28067	632.67084	1296.04114	287.72519	459.53632	1293.11658	183.93652	287.77478	1336.05676	102.61980	92.74819	1369.36292	52.04505	68.91467	1369.58435	242.35732	33.11446	1580.51831	436.52896	638.83185	1546.99292	526.03571	481.40631	1560.92188	543.28717	293.93515	1526.75647	591.96985	79.72730	1472.86133	559.99536	37.57877	1515.96460	735.91541	70.70745	1395.03210	286.76669	1661.40454																					 
145	1.440	1341.19910	392.85654	1617.19336	1473.89832	396.36728	1627.67944	1353.73694	279.25449	1545.98193	1483.85046	287.20328	1556.72058	1403.76880	280.87863	1393.64001	1402.08679	276.40039	1083.92041	1412.74902	410.05627	1332.30566	1405.99902	472.11063	1172.05664	1486.86194	243.49438	1211.71497	1256.23450	372.00208	1368.86340	1176.83118	424.08130	1187.91089	1162.18176	479.39343	1079.07764	1176.97095	572.33667	991.03467	1223.07837	653.06445	912.42273	1171.94226	638.96393	898.67285	1190.67114	702.72339	848.86896	1569.07617	346.27679	1346.78613	1639.19128	325.53119	1125.89636	1658.46765	326.03220	1014.16541	1668.10486	318.35635	877.12482	1642.97620	337.28522	774.17889	1680.46362	297.78244	779.40631	1674.41150	303.45959	702.64667	1284.98328	436.89600	927.76117	1520.66479	443.70105	928.19800	1342.53040	276.43915	947.80499	1490.09973	280.69354	949.02673	1253.74377	338.66525	632.11621	1296.03333	298.16605	458.99344	1293.40393	190.40753	289.28915	1336.43823	104.35423	96.56192	1369.68164	53.58446	73.83116	1369.65698	242.52884	33.00519	1581.84314	450.35681	638.42334	1547.81799	538.60291	480.63651	1561.97192	559.02521	293.40771	1528.11816	610.92126	79.73673	1474.53125	579.64642	36.69532	1516.55627	755.29333	73.62501	1395.41589	300.63837	1660.21631																					 
